<svg xmlns="http://www.w3.org/2000/svg" version="1.1" xmlns:xlink="http://www.w3.org/1999/xlink" xmlns:svgjs="http://svgjs.com/svgjs" width="1440" height="560" preserveAspectRatio="none" viewBox="0 0 1440 560"><g mask="url(&quot;#SvgjsMask1003&quot;)" fill="none"><rect width="1440" height="560" x="0" y="0" fill="url(#SvgjsLinearGradient1004)"></rect><path d="M166.18 369.2a6.73 6.73 0 1 0-7.64 11.09z" fill="#e73635"></path><path d="M-6.08 536.02 a24.47 24.47 0 1 0 48.94 0 a24.47 24.47 0 1 0 -48.94 0z" stroke="#e73635"></path><path d="M622.45 83.32L642.38 83.32L642.38 86.81L622.45 86.81z" fill="#e73635"></path><path d="M814.4 376.88L862.31 376.88L862.31 424.79L814.4 424.79z" fill="#037b0b"></path><path d="M1080.47 148.96L1122.46 148.96L1122.46 190.95L1080.47 190.95z" stroke="#037b0b"></path><path d="M1396.6 487.99L1414.75 487.99L1414.75 506.14L1396.6 506.14z" fill="#037b0b"></path><path d="M371.14 231.87L422.35 231.87L422.35 283.08L371.14 283.08z" stroke="#e73635"></path><path d="M684.01 333.2L719.6 333.2L719.6 368.79L684.01 368.79z" fill="#e73635"></path><path d="M434.31 550.36L437.15 550.36L437.15 569.29L434.31 569.29z" stroke="#e73635"></path><path d="M872.39 103.41 a11.05 11.05 0 1 0 22.1 0 a11.05 11.05 0 1 0 -22.1 0z" stroke="#d3b714"></path><path d="M398.79 25.69L409.36 25.69L409.36 36.26L398.79 36.26z" fill="#e73635"></path><path d="M213.32 168.97L258.71 168.97L258.71 181.25L213.32 181.25z" stroke="#d3b714"></path><path d="M1319.47 593.36a50.72 50.72 0 1 0-71.76-71.7z" stroke="#d3b714"></path><path d="M578.64 135.33L621.69 135.33L621.69 178.38L578.64 178.38z" stroke="#037b0b"></path><path d="M1193.51 92.2L1201.68 92.2L1201.68 100.37L1193.51 100.37z" fill="#e73635"></path><path d="M541.05 31.43 a18.92 18.92 0 1 0 37.84 0 a18.92 18.92 0 1 0 -37.84 0z" stroke="#e73635"></path><path d="M95.83 149.08L135.94 149.08L135.94 189.19L95.83 189.19z" fill="#d3b714"></path><path d="M206.43 72.86a38.73 38.73 0 1 0-20.12-74.8z" stroke="#e73635"></path><path d="M340 355.13L374.13 355.13L374.13 389.26L340 389.26z" stroke="#e73635"></path><path d="M963.68 361.18L982.2 361.18L982.2 379.7L963.68 379.7z" stroke="#e73635"></path><path d="M212.07 236.18L247.05 236.18L247.05 249.19L212.07 249.19z" stroke="#037b0b"></path><path d="M1328.56 48.86L1332.57 48.86L1332.57 66.93L1328.56 66.93z" fill="#037b0b"></path><path d="M1324 134.18L1325.16 134.18L1325.16 135.34L1324 135.34z" fill="#037b0b"></path><path d="M683.85 55.87L684.35 55.87L684.35 56.37L683.85 56.37z" fill="#e73635"></path><path d="M537.96 517.46a19.78 19.78 0 1 0 6.96-38.95z" fill="#d3b714"></path><path d="M286.76 300.85L320.17 300.85L320.17 334.26L286.76 334.26z" fill="#d3b714"></path><path d="M908.19 115.75a9.2 9.2 0 1 0-3.45-18.08z" stroke="#d3b714"></path><path d="M700.34 115.66a21.5 21.5 0 1 0-8.5 42.15z" fill="#e73635"></path><path d="M1245.04 457.12 a24.11 24.11 0 1 0 48.22 0 a24.11 24.11 0 1 0 -48.22 0z" fill="#d3b714"></path><path d="M1053.4 441.9L1064.31 441.9L1064.31 452.81L1053.4 452.81z" stroke="#037b0b"></path><path d="M1010.25 335.44a54.9 54.9 0 1 0 108.94-13.76z" stroke="#d3b714"></path><path d="M1373.7 448.43L1413.81 448.43L1413.81 470.32L1373.7 470.32z" stroke="#e73635"></path><path d="M1063.24 212.06 a35.79 35.79 0 1 0 71.58 0 a35.79 35.79 0 1 0 -71.58 0z" fill="#d3b714"></path></g><defs><mask id="SvgjsMask1003"><rect width="1440" height="560" fill="#ffffff"></rect></mask><linearGradient x1="15.28%" y1="-39.29%" x2="84.72%" y2="139.29%" gradientUnits="userSpaceOnUse" id="SvgjsLinearGradient1004"><stop stop-color="#0e2a47" offset="0"></stop><stop stop-color="#00459e" offset="1"></stop></linearGradient></defs></svg>